<svg id="visual" viewBox="0 0 960 540" width="960" height="540" xmlns="http://www.w3.org/2000/svg" xmlns:xlink="http://www.w3.org/1999/xlink" version="1.1">
<rect x="0" y="0" width="960" height="540" fill="#0042a5"></rect>
<path d="M0 181L17.8 184.7C35.7 188.3 71.3 195.7 106.8 196.8C142.3 198 177.7 193 213.2 190.7C248.7 188.3 284.3 188.7 320 182.7C355.7 176.7 391.3 164.3 426.8 165.2C462.3 166 497.7 180 533.2 187.2C568.7 194.3 604.3 194.7 640 191.7C675.7 188.7 711.3 182.3 746.8 181.2C782.3 180 817.7 184 853.2 182.3C888.7 180.7 924.3 173.3 942.2 169.7L960 166L960 0L942.2 0C924.3 0 888.7 0 853.2 0C817.7 0 782.3 0 746.8 0C711.3 0 675.7 0 640 0C604.3 0 568.7 0 533.2 0C497.7 0 462.3 0 426.8 0C391.3 0 355.7 0 320 0C284.3 0 248.7 0 213.2 0C177.7 0 142.3 0 106.8 0C71.3 0 35.7 0 17.8 0L0 0Z" fill="#0149b6"></path>
<path d="M0 147L17.8 146.8C35.7 146.7 71.3 146.3 106.8 150.2C142.3 154 177.7 162 213.2 161.8C248.7 161.7 284.3 153.3 320 151.5C355.7 149.7 391.3 154.3 426.8 155.7C462.3 157 497.7 155 533.2 151.2C568.7 147.3 604.3 141.7 640 146.8C675.7 152 711.3 168 746.8 170.7C782.3 173.3 817.7 162.7 853.2 160.2C888.7 157.7 924.3 163.3 942.2 166.2L960 169L960 0L942.2 0C924.3 0 888.7 0 853.2 0C817.7 0 782.3 0 746.8 0C711.3 0 675.7 0 640 0C604.3 0 568.7 0 533.2 0C497.7 0 462.3 0 426.8 0C391.3 0 355.7 0 320 0C284.3 0 248.7 0 213.2 0C177.7 0 142.3 0 106.8 0C71.3 0 35.7 0 17.8 0L0 0Z" fill="#0054bf"></path>
<path d="M0 125L17.8 129.5C35.7 134 71.3 143 106.8 149C142.3 155 177.7 158 213.2 153C248.7 148 284.3 135 320 134.7C355.7 134.3 391.3 146.7 426.8 148.2C462.3 149.7 497.7 140.3 533.2 141.5C568.7 142.7 604.3 154.3 640 157.8C675.7 161.3 711.3 156.7 746.8 151.3C782.3 146 817.7 140 853.2 138.5C888.7 137 924.3 140 942.2 141.5L960 143L960 0L942.2 0C924.3 0 888.7 0 853.2 0C817.7 0 782.3 0 746.8 0C711.3 0 675.7 0 640 0C604.3 0 568.7 0 533.2 0C497.7 0 462.3 0 426.8 0C391.3 0 355.7 0 320 0C284.3 0 248.7 0 213.2 0C177.7 0 142.3 0 106.8 0C71.3 0 35.7 0 17.8 0L0 0Z" fill="#005fc7"></path
><path d="M0 143L17.8 141.7C35.7 140.3 71.3 137.7 106.8 136.8C142.3 136 177.7 137 213.2 132.7C248.7 128.3 284.3 118.7 320 119.5C355.7 120.3 391.3 131.7 426.8 131.5C462.3 131.3 497.7 119.7 533.2 119.3C568.7 119 604.3 130 640 135.7C675.7 141.3 711.3 141.7 746.8 142C782.3 142.3 817.7 142.7 853.2 139.8C888.7 137 924.3 131 942.2 128L960 125L960 0L942.2 0C924.3 0 888.7 0 853.2 0C817.7 0 782.3 0 746.8 0C711.3 0 675.7 0 640 0C604.3 0 568.7 0 533.2 0C497.7 0 462.3 0 426.8 0C391.3 0 355.7 0 320 0C284.3 0 248.7 0 213.2 0C177.7 0 142.3 0 106.8 0C71.3 0 35.7 0 17.8 0L0 0Z" fill="#046acf"></path>
<path d="M0 125L17.8 125.5C35.7 126 71.3 127 106.8 123C142.3 119 177.7 110 213.2 106.5C248.7 103 284.3 105 320 104.8C355.7 104.7 391.3 102.3 426.8 105.2C462.3 108 497.7 116 533.2 120.2C568.7 124.3 604.3 124.7 640 122C675.7 119.3 711.3 113.7 746.8 108.8C782.3 104 817.7 100 853.2 98.7C888.7 97.3 924.3 98.7 942.2 99.3L960 100L960 0L942.2 0C924.3 0 888.7 0 853.2 0C817.7 0 782.3 0 746.8 0C711.3 0 675.7 0 640 0C604.3 0 568.7 0 533.2 0C497.7 0 462.3 0 426.8 0C391.3 0 355.7 0 320 0C284.3 0 248.7 0 213.2 0C177.7 0 142.3 0 106.8 0C71.3 0 35.7 0 17.8 0L0 0Z" fill="#1175d6"></path>
<path d="M0 100L17.8 99.5C35.7 99 71.3 98 106.8 99C142.3 100 177.7 103 213.2 102.5C248.7 102 284.3 98 320 98.2C355.7 98.3 391.3 102.7 426.8 99.8C462.3 97 497.7 87 533.2 86.5C568.7 86 604.3 95 640 96.3C675.7 97.7 711.3 91.3 746.8 90.3C782.3 89.3 817.7 93.7 853.2 92.5C888.7 91.3 924.3 84.7 942.2 81.3L960 78L960 0L942.2 0C924.3 0 888.7 0 853.2 0C817.7 0 782.3 0 746.8 0C711.3 0 675.7 0 640 0C604.3 0 568.7 0 533.2 0C497.7 0 462.3 0 426.8 0C391.3 0 355.7 0 320 0C284.3 0 248.7 0 213.2 0C177.7 0 142.3 0 106.8 0C71.3 0 35.7 0 17.8 0L0 0Z" fill="#1d80de"></path>
<path d="M0 83L17.8 82.8C35.7 82.7 71.3 82.3 106.8 80.8C142.3 79.3 177.7 76.7 213.2 73.8C248.7 71 284.3 68 320 67.7C355.7 67.3 391.3 69.7 426.8 73.5C462.3 77.3 497.7 82.7 533.2 85.3C568.7 88 604.3 88 640 88C675.7 88 711.3 88 746.8 85.5C782.3 83 817.7 78 853.2 74.8C888.7 71.7 924.3 70.3 942.2 69.7L960 69L960 0L942.2 0C924.3 0 888.7 0 853.2 0C817.7 0 782.3 0 746.8 0C711.3 0 675.7 0 640 0C604.3 0 568.7 0 533.2 0C497.7 0 462.3 0 426.8 0C391.3 0 355.7 0 320 0C284.3 0 248.7 0 213.2 0C177.7 0 142.3 0 106.8 0C71.3 0 35.7 0 17.8 0L0 0Z" fill="#2a8be4"></path>
<path d="M0 63L17.8 60.3C35.7 57.7 71.3 52.3 106.8 50.2C142.3 48 177.7 49 213.2 49C248.7 49 284.3 48 320 51C355.7 54 391.3 61 426.8 61C462.3 61 497.7 54 533.2 53.2C568.7 52.3 604.3 57.7 640 57.8C675.7 58 711.3 53 746.8 52.7C782.3 52.3 817.7 56.7 853.2 58.5C888.7 60.3 924.3 59.7 942.2 59.3L960 59L960 0L942.2 0C924.3 0 888.7 0 853.2 0C817.7 0 782.3 0 746.8 0C711.3 0 675.7 0 640 0C604.3 0 568.7 0 533.2 0C497.7 0 462.3 0 426.8 0C391.3 0 355.7 0 320 0C284.3 0 248.7 0 213.2 0C177.7 0 142.3 0 106.8 0C71.3 0 35.7 0 17.8 0L0 0Z" fill="#3696eb"></path>
<path d="M0 50L17.8 47.3C35.7 44.7 71.3 39.3 106.8 38.5C142.3 37.7 177.7 41.3 213.2 41.8C248.7 42.3 284.3 39.7 320 39.2C355.7 38.7 391.3 40.3 426.8 42C462.3 43.7 497.7 45.3 533.2 45.5C568.7 45.7 604.3 44.3 640 41.8C675.7 39.3 711.3 35.7 746.8 36.3C782.3 37 817.7 42 853.2 43.8C888.7 45.7 924.3 44.3 942.2 43.7L960 43L960 0L942.2 0C924.3 0 888.7 0 853.2 0C817.7 0 782.3 0 746.8 0C711.3 0 675.7 0 640 0C604.3 0 568.7 0 533.2 0C497.7 0 462.3 0 426.8 0C391.3 0 355.7 0 320 0C284.3 0 248.7 0 213.2 0C177.7 0 142.3 0 106.8 0C71.3 0 35.7 0 17.8 0L0 0Z" fill="#42a1f1"></path>
<path d="M0 27L17.8 26.7C35.7 26.3 71.3 25.7 106.8 24.5C142.3 23.3 177.7 21.7 213.2 20.7C248.7 19.7 284.3 19.3 320 21C355.7 22.7 391.3 26.3 426.8 26.5C462.3 26.7 497.7 23.3 533.2 23C568.7 22.7 604.3 25.3 640 25.7C675.7 26 711.3 24 746.8 24.2C782.3 24.3 817.7 26.7 853.2 27.3C888.7 28 924.3 27 942.2 26.5L960 26L960 0L942.2 0C924.3 0 888.7 0 853.2 0C817.7 0 782.3 0 746.8 0C711.3 0 675.7 0 640 0C604.3 0 568.7 0 533.2 0C497.7 0 462.3 0 426.8 0C391.3 0 355.7 0 320 0C284.3 0 248.7 0 213.2 0C177.7 0 142.3 0 106.8 0C71.3 0 35.7 0 17.8 0L0 0Z" fill="#4facf7"></path></svg>
